<?xml version="1.0" encoding="UTF-8"?>
<svg xmlns="http://www.w3.org/2000/svg" xmlns:xlink="http://www.w3.org/1999/xlink" width="100%" height="100%" viewBox="0 0 60 60" version="1.1"><!-- Generator: Sketch 51.3 (57544) - http://www.bohemiancoding.com/sketch --><title>003 - Mashing Tank</title><desc>Created with Sketch.</desc><defs/><g id="Page-1" stroke="none" stroke-width="1" fill="none" fill-rule="evenodd"><g id="003---Mashing-Tank" fill="#000000" fill-rule="nonzero"><path d="M59.97,25.757 L58.97,21.757 C58.9554289,21.7153804 58.9377111,21.6749302 58.917,21.636 C58.906,21.609 58.908,21.58 58.895,21.553 C57.7779009,19.7431496 56.0365316,18.4051946 54,17.792 L54,13 C53.997855,12.2886732 53.6167513,11.6324126 53,11.278 L53,2 C53,0.8954305 52.1045695,6.24745289e-16 51,5.57109914e-16 L47,5.57109914e-16 C45.8954305,4.89474539e-16 45,0.8954305 45,2 L45,11.278 C44.3832487,11.6324126 44.002145,12.2886732 44,13 L44,17 L41,17 L41,5 C40.9995226,4.6668416 40.9660255,4.33455073 40.9,4.008 C40.872,3.873 40.819,3.749 40.781,3.618 C40.735423,3.43382595 40.6789911,3.25250926 40.612,3.075 C40.5388268,2.91779975 40.4573794,2.76458517 40.368,2.616 C40.295,2.483 40.236,2.344 40.151,2.216 C40.081,2.116 39.992,2.024 39.915,1.926 C39.7966356,1.76197738 39.6687491,1.60504103 39.532,1.456 C39.3087449,1.23713505 39.0660824,1.03898863 38.807,0.864 C38.751,0.826 38.688,0.8 38.631,0.764 C38.4257374,0.633733506 38.2115388,0.518113051 37.99,0.418 C37.905,0.381 37.814,0.358 37.727,0.326 C37.5136646,0.244938554 37.2951845,0.178125064 37.073,0.126 C37,0.106 36.917,0.1 36.839,0.085 C36.6689242,0.047751508 36.497025,0.0193798021 36.324,0 C36.251,0 36.181,0.01 36.108,0.009 C36.072,0.01 36.037,5.57109914e-16 36,5.57109914e-16 C35.9662903,0.00462300199 35.9328947,0.0113021221 35.9,0.02 C34.702387,0.0456116606 33.5568393,0.51452012 32.685,1.336 C31.611333,2.34676831 31.001789,3.75541185 31,5.23 L31,17 C31.0022763,17.2682198 30.8937269,17.525482 30.7,17.711 C30.4613766,17.9557811 30.1104,18.0548624 29.779,17.971 C29.2951819,17.8142039 28.9761287,17.3530306 29,16.845 L29,5 C28.9999065,3.58592806 28.4010496,2.23801945 27.3517425,1.29009843 C26.3024355,0.342177418 24.9008122,-0.117104084 23.494,0.026 C23.41,0.034 23.332,0.063 23.249,0.076 C23.080741,0.100807741 22.9138574,0.134184465 22.749,0.176 C22.637,0.207 22.527,0.24 22.418,0.276 C22.1847117,0.354754188 21.9574479,0.450338686 21.738,0.562 L21.727,0.568 C20.0581835,1.41638089 19.0050755,3.12792288 19,5 C19.0032723,5.020875 19.0076113,5.04156876 19.013,5.062 C19.013,5.108 19,5.152 19,5.198 L19,17 L16,17 L16,13 C15.997855,12.2886732 15.6167513,11.6324126 15,11.278 L15,2 C15,0.8954305 14.1045695,6.24745289e-16 13,5.57109914e-16 L9,5.57109914e-16 C7.8954305,4.89474539e-16 7,0.8954305 7,2 L7,11.278 C6.38324874,11.6324126 6.002145,12.2886732 6,13 L6,17.792 C3.96346837,18.4051946 2.22209908,19.7431496 1.105,21.553 C1.092,21.58 1.094,21.609 1.083,21.636 C1.06247225,21.6750187 1.04476043,21.7154551 1.03,21.757 L0.03,25.757 C0.0281870661,25.7903087 0.0281870661,25.8236913 0.03,25.857 C0.0161915725,25.9037876 0.00615938445,25.9516077 0,26 L0,56 C1.01653785e-16,57.6568542 1.34314575,59 3,59 C4.65685425,59 6,57.6568542 6,56 L6,55.806 C6.666,55.876 7.333,55.927 8,55.97 L8,57 C8.00000003,58.6568542 9.34314578,59.9999999 11,59.9999999 C12.6568542,59.9999999 14,58.6568542 14,57 L14,55.97 C14.667,55.927 15.334,55.876 16,55.806 L16,56 C16,57.6568542 17.3431458,59 19,59 C20.6568542,59 22,57.6568542 22,56 L22,51 L27.382,51 C28.8726926,52.333316 31.1273074,52.333316 32.618,51 L38,51 L38,56 C38,57.6568542 39.3431458,59 41,59 C42.6568542,59 44,57.6568542 44,56 L44,55.806 C44.666,55.876 45.333,55.927 46,55.97 L46,57 C46,58.6568542 47.3431458,60 49,60 C50.6568542,60 52,58.6568542 52,57 L52,55.97 C52.667,55.927 53.334,55.876 54,55.806 L54,56 C54,57.6568542 55.3431458,59 57,59 C58.6568542,59 60,57.6568542 60,56 L60,26 C59.9942371,25.9533471 59.9848759,25.9072097 59.972,25.862 C59.9733332,25.8269905 59.9726654,25.7919334 59.97,25.757 Z M51.029,54.026 C51.019,54.026 51.01,54.02 51,54.02 C50.99,54.02 50.976,54.027 50.963,54.028 C49.655,54.084 48.3463333,54.084 47.037,54.028 C47.024,54.028 47.013,54.02 47,54.02 C46.987,54.02 46.981,54.026 46.971,54.026 C44.6291524,53.9222649 42.2986794,53.6394388 40,53.18 L40,27 L58,27 L58,53.18 C55.7013206,53.6394388 53.3708476,53.9222649 51.029,54.026 Z M33,23.9 C34.2831305,23.6356422 35.411915,22.8797694 36.145,21.794 C36.8308779,22.4913029 37.7498709,22.9110986 38.726,22.973 L38.026,25.758 C38.0241871,25.7913087 38.0241871,25.8246913 38.026,25.858 C38.0135949,25.904572 38.004901,25.952054 38,26 L38,45 L33,45 L33,23.9 Z M49,19 C51.4293162,18.8639906 53.8311533,19.5704133 55.8,21 L42.2,21 C44.16881,19.5703387 46.5706743,18.863908 49,19 Z M40.781,23 L57.219,23 L57.719,25 L40.281,25 L40.781,23 Z M49,17 C47.9939222,16.997718 46.9897426,17.0874247 46,17.268 L46,13 L52,13 L52,17.268 C51.0102574,17.0874247 50.0060778,16.997718 49,17 Z M51,2 L51,11 L47,11 L47,2 L51,2 Z M19.5,19 C20.3284271,19 21,18.3284271 21,17.5 L21,5.2 C20.9852221,3.85463014 21.8112806,2.64289147 23.069,2.165 C23.124,2.147 23.179,2.128 23.236,2.113 C23.3396477,2.0849787 23.4448214,2.06294231 23.551,2.047 C23.651,2.033 23.751,2.023 23.851,2.017 C24.6428989,1.96820125 25.4210892,2.24033355 26.01,2.772 C26.6395691,3.34172319 26.9991304,4.15091752 27,5 L27,16.845 C26.9747818,18.2829853 27.9345701,19.5523828 29.325,19.92 C29.5512801,19.9722972 29.7827552,19.9987994 30.015,19.999 C30.8019473,20.0026615 31.5568963,19.6877688 32.108,19.126 C32.6819985,18.5680711 33.0040613,17.8004639 33,17 L33,5.23 C33.0020609,4.30733852 33.3840109,3.42624927 34.056,2.794 C34.5894178,2.28280445 35.3001818,1.99821211 36.039,2 C36.2094647,2.00271122 36.3793983,2.01977149 36.547,2.051 C36.574,2.051 36.601,2.058 36.627,2.064 C36.7790997,2.09849898 36.9282317,2.14497732 37.073,2.203 C37.11,2.217 37.15,2.227 37.187,2.243 C37.3408123,2.31044438 37.4886686,2.39072834 37.629,2.483 C37.646,2.494 37.664,2.501 37.68,2.512 C37.9578243,2.70332707 38.2015467,2.93995077 38.401,3.212 C38.429,3.249 38.464,3.282 38.489,3.32 C38.537,3.39 38.569,3.469 38.611,3.543 C38.6686179,3.63842844 38.7210279,3.73690584 38.768,3.838 C38.804,3.925 38.824,4.019 38.852,4.11 C38.8863014,4.20441116 38.9156743,4.30054073 38.94,4.398 C38.9803427,4.59611583 39.000446,4.79781886 39,5 L39,17.5 C39,18.3284271 39.6715729,19 40.5,19 L41.57,19 C40.7538018,19.5382768 40.0380209,20.2151382 39.455,21 L39,21 C37.8954305,21 37,20.1045695 37,19 L37,5 C37,4.44771525 36.5522847,4 36,4 C35.4477153,4 35,4.44771525 35,5 L35,19 C35,20.6568542 33.6568542,22 32,22 C31.4477153,22 31,22.4477153 31,23 L31,44.142 C30.346777,43.9526597 29.653223,43.9526597 29,44.142 L29,42 C29,41.4477153 28.5522847,41 28,41 L22,41 L22,39 L28,39 C28.5522847,39 29,38.5522847 29,38 L29,23 C29,22.4477153 28.5522847,22 28,22 C26.3431458,22 25,20.6568542 25,19 L25,5 C25,4.44771525 24.5522847,4 24,4 C23.4477153,4 23,4.44771525 23,5 L23,19 C23,20.1045695 22.1045695,21 21,21 L20.545,21 C19.9619791,20.2151382 19.2461982,19.5382768 18.43,19 L19.5,19 Z M13.029,54.026 C13.019,54.026 13.01,54.02 13,54.02 C12.99,54.02 12.976,54.027 12.963,54.028 C11.655,54.084 10.3463333,54.084 9.037,54.028 C9.024,54.028 9.013,54.02 9,54.02 C8.987,54.02 8.981,54.026 8.971,54.026 C6.62915241,53.9222649 4.29867942,53.6394388 2,53.18 L2,27 L20,27 L20,53.18 C17.7013206,53.6394388 15.3708476,53.9222649 13.029,54.026 Z M11,19 C13.4293162,18.8639906 15.8311533,19.5704133 17.8,21 L4.2,21 C6.16881,19.5703387 8.5706743,18.863908 11,19 Z M23.855,21.793 C24.587898,22.8791466 25.716708,23.6353955 27,23.9 L27,37 L22,37 L22,26 C21.9942371,25.9533471 21.9848759,25.9072097 21.972,25.862 C21.9738129,25.8286913 21.9738129,25.7953087 21.972,25.762 L21.272,22.977 C22.2495165,22.9142423 23.1693945,22.4925871 23.855,21.793 Z M2.781,23 L19.219,23 L19.719,25 L2.281,25 L2.781,23 Z M22,43 L27,43 L27,45 L22,45 L22,43 Z M13,2 L13,11 L9,11 L9,2 L13,2 Z M8,13 L14,13 L14,17.268 C12.015961,16.9106657 9.98403903,16.9106657 8,17.268 L8,13 Z M4,56 C4,56.5522847 3.55228475,57 3,57 C2.44771525,57 2,56.5522847 2,56 L2,55.21 C2.666,55.337 3.332,55.458 4,55.557 L4,56 Z M12,57 C12,57.5522847 11.5522847,58 11,58 C10.4477153,58 10,57.5522847 10,57 L10,56.051 C10.333,56.058 10.667,56.076 11,56.076 C11.333,56.076 11.667,56.058 12,56.051 L12,57 Z M19,57 C18.4477153,57 18,56.5522847 18,56 L18,55.557 C18.668,55.457 19.334,55.337 20,55.21 L20,56 C20,56.5522847 19.5522847,57 19,57 Z M22,47 L26.142,47 C25.9526597,47.653223 25.9526597,48.346777 26.142,49 L22,49 L22,47 Z M28,48 C28,46.8954305 28.8954305,46 30,46 C31.1045695,46 32,46.8954305 32,48 C32,49.1045695 31.1045695,50 30,50 C28.8954305,50 28,49.1045695 28,48 Z M33.858,49 C34.0473403,48.346777 34.0473403,47.653223 33.858,47 L38,47 L38,49 L33.858,49 Z M42,56 C42,56.5522847 41.5522847,57 41,57 C40.4477153,57 40,56.5522847 40,56 L40,55.21 C40.666,55.337 41.332,55.458 42,55.557 L42,56 Z M50,57 C50,57.5522847 49.5522847,58 49,58 C48.4477153,58 48,57.5522847 48,57 L48,56.051 C48.333,56.058 48.667,56.076 49,56.076 C49.333,56.076 49.667,56.058 50,56.051 L50,57 Z M57,57 C56.4477153,57 56,56.5522847 56,56 L56,55.557 C56.668,55.457 57.334,55.337 58,55.21 L58,56 C58,56.5522847 57.5522847,57 57,57 Z" id="Shape"/><path d="M5,29 C4.44771525,29 4,29.4477153 4,30 L4,31 C4,31.5522847 4.44771525,32 5,32 C5.55228475,32 6,31.5522847 6,31 L6,30 C6,29.4477153 5.55228475,29 5,29 Z" id="Shape"/><path d="M5,34 C4.44771525,34 4,34.4477153 4,35 L4,42 C4,42.5522847 4.44771525,43 5,43 C5.55228475,43 6,42.5522847 6,42 L6,35 C6,34.4477153 5.55228475,34 5,34 Z" id="Shape"/><path d="M43,29 C42.4477153,29 42,29.4477153 42,30 L42,31 C42,31.5522847 42.4477153,32 43,32 C43.5522847,32 44,31.5522847 44,31 L44,30 C44,29.4477153 43.5522847,29 43,29 Z" id="Shape"/><path d="M43,34 C42.4477153,34 42,34.4477153 42,35 L42,39 C42,39.5522847 42.4477153,40 43,40 C43.5522847,40 44,39.5522847 44,39 L44,35 C44,34.4477153 43.5522847,34 43,34 Z" id="Shape"/><path d="M16,44 C16,43.4477153 15.5522847,43 15,43 L13.618,43 C12.0098803,41.5817717 9.56951486,41.6837796 8.08536276,43.2312657 C6.60121066,44.7787518 6.60121066,47.2212482 8.08536276,48.7687343 C9.56951486,50.3162204 12.0098803,50.4182283 13.618,49 L15,49 C15.5522847,49 16,48.5522847 16,48 C16,47.4477153 15.5522847,47 15,47 L14.858,47 C15.0473403,46.346777 15.0473403,45.653223 14.858,45 L15,45 C15.5522847,45 16,44.5522847 16,44 Z M9,46 C9,44.8954305 9.8954305,44 11,44 C12.1045695,44 13,44.8954305 13,46 C13,47.1045695 12.1045695,48 11,48 C9.8954305,48 9,47.1045695 9,46 Z" id="Shape"/><path d="M54,44 C54,43.4477153 53.5522847,43 53,43 L51.618,43 C50.0098803,41.5817717 47.5695149,41.6837796 46.0853628,43.2312657 C44.6012107,44.7787518 44.6012107,47.2212482 46.0853628,48.7687343 C47.5695149,50.3162204 50.0098803,50.4182283 51.618,49 L53,49 C53.5522847,49 54,48.5522847 54,48 C54,47.4477153 53.5522847,47 53,47 L52.858,47 C53.0473403,46.346777 53.0473403,45.653223 52.858,45 L53,45 C53.5522847,45 54,44.5522847 54,44 Z M47,46 C47,44.8954305 47.8954305,44 49,44 C50.1045695,44 51,44.8954305 51,46 C51,47.1045695 50.1045695,48 49,48 C47.8954305,48 47,47.1045695 47,46 Z" id="Shape"/></g></g></svg>
