<svg id="Layer_1" enable-background="new 0 0 512 512" height="100%" viewBox="0 0 512 512" width="100%" xmlns="http://www.w3.org/2000/svg"><g id="XMLID_1725_"><g id="XMLID_333_"><path id="XMLID_356_" d="m168.66 70.586-1.367-10.586h.097c5.523 0 10-4.477 10-10v-24c0-14.336-11.664-26-26-26h-42.78c-14.336 0-26 11.664-26 26v24c0 5.523 4.477 10 10 10h.097l-1.367 10.586c-4.695 36.367-7.159 73.373-7.33 110.066-22.934 24.011-36.01 56.476-36.01 89.744v211.604c0 16.542 13.458 30 30 30h104c16.542 0 30-13.458 30-30v-211.604c0-33.268-13.076-65.733-36.01-89.745-.171-36.692-2.635-73.698-7.33-110.065zm-66.05-44.586c0-3.309 2.691-6 6-6h42.78c3.309 0 6 2.691 6 6v14h-54.78zm44.518 34 1.697 13.146c1.919 14.864 3.437 29.839 4.589 44.854h-46.828c1.152-15.015 2.67-29.99 4.589-44.854l1.697-13.146zm44.872 422c0 5.514-4.486 10-10 10h-104c-5.514 0-10-4.486-10-10v-52.426c15.048 17.391 37.252 28.426 62 28.426s46.952-11.035 62-28.426zm0-188.033c-3.933-4.564-8.38-8.723-13.303-12.362-4.441-3.283-10.703-2.345-13.985 2.098-3.283 4.441-2.344 10.703 2.098 13.985 15.773 11.66 25.19 30.312 25.19 49.897v28.415c0 34.187-27.813 62-62 62s-62-27.813-62-62v-28.415c0-19.583 9.416-38.235 25.187-49.894 4.441-3.283 5.38-9.545 2.097-13.986-3.284-4.441-9.545-5.38-13.986-2.097-4.921 3.637-9.367 7.796-13.298 12.358v-23.571c0-29.347 12.026-57.954 32.996-78.485 1.921-1.881 3.004-4.457 3.004-7.146 0-15.55.447-31.163 1.287-46.766h49.426c.839 15.603 1.287 31.216 1.287 46.766 0 2.689 1.083 5.264 3.004 7.146 20.97 20.532 32.996 49.139 32.996 78.486z"/><path id="XMLID_362_" d="m148.454 339.04-4.616-9.347c-2.621-5.307-7.925-8.603-13.843-8.603-.001 0-.003 0-.005 0-5.919.002-11.224 3.301-13.842 8.61l-4.611 9.349-10.317 1.502c-5.858.854-10.632 4.881-12.46 10.512s-.329 11.694 3.911 15.825l7.467 7.275-1.759 10.274c-1 5.835 1.355 11.621 6.146 15.1 2.706 1.965 5.871 2.963 9.058 2.963 2.455 0 4.923-.592 7.203-1.792l9.226-4.854 9.228 4.848c5.24 2.752 11.471 2.301 16.259-1.179 4.789-3.481 7.141-9.268 6.138-15.103l-1.765-10.274 7.463-7.278c4.238-4.133 5.733-10.198 3.903-15.828-1.831-5.63-6.608-9.655-12.466-10.505zm-6.31 24.46c-2.356 2.298-3.431 5.608-2.874 8.852l1.09 6.348-5.702-2.996c-2.914-1.531-6.394-1.53-9.307.002l-5.701 2.999 1.087-6.349c.556-3.244-.521-6.553-2.878-8.85l-4.614-4.495 6.374-.928c3.257-.474 6.072-2.521 7.528-5.472l2.849-5.777 2.852 5.775c1.458 2.951 4.274 4.996 7.531 5.468l6.375.924z"/><path id="XMLID_974_" d="m426.852 135.148c-4.55 0-9.016.826-13.207 2.423-5.768-4.321-12.658-6.993-20.006-7.68-4.984-.465-9.917-.009-14.611 1.329-11.037-14.507-28.287-23.22-46.856-23.22-18.577 0-35.834 8.721-46.869 23.24-6.197-1.761-12.813-2-19.301-.633-16.423 3.458-28.786 17.067-30.763 33.864-.767 6.514.02 12.812 2.271 18.677-1.582 1.769-2.552 4.097-2.552 6.657v39.475c0 31.365 6.606 61.734 19.636 90.264 11.83 25.906 17.828 53.479 17.828 81.957v100.499c0 5.523 4.477 10 10 10h134.114c5.523 0 10-4.477 10-10v-100.5c0-28.478 5.998-56.052 17.828-81.956 13.029-28.53 19.636-58.9 19.636-90.265v-56.982c0-20.484-16.665-37.149-37.148-37.149zm12.481 64.656h4.667v29.475c0 6.189-.301 12.332-.866 18.428h-16.663v-35.041c0-7.093 5.77-12.862 12.862-12.862zm-184.23-32.995c.972-8.261 7.009-14.944 15.021-16.631 6.263-1.32 11.101.432 14.056 2.132 2.338 1.346 5.12 1.689 7.716.955 2.595-.736 4.783-2.489 6.067-4.862 6.81-12.584 19.918-20.402 34.209-20.402 14.286 0 27.393 7.814 34.205 20.393 1.285 2.372 3.473 4.124 6.067 4.859 2.595.736 5.378.392 7.714-.954 3.499-2.015 7.515-2.875 11.619-2.493 4.959.463 9.481 2.739 12.734 6.408 3.293 3.714 8.812 4.449 12.963 1.73 2.79-1.828 6.032-2.794 9.376-2.794 9.456 0 17.148 7.692 17.148 17.148v7.507h-4.667c-18.12 0-32.862 14.742-32.862 32.862v42.798c0 5.553-4.518 10.071-10.07 10.071-5.553 0-10.071-4.518-10.071-10.071 0-5.523-4.477-10-10-10s-10 4.477-10 10v53.295c0 5.553-4.518 10.071-10.071 10.071s-10.071-4.518-10.071-10.071v-94.381c0-19.064-15.51-34.574-34.574-34.574h-53.432c-2.579-3.948-3.63-8.303-3.077-12.996zm-.145 62.47v-29.475h56.656c8.036 0 14.574 6.538 14.574 14.574v33.329h-70.364c-.565-6.096-.866-12.239-.866-18.428zm37.464 262.721v-21.517c2.92.979 6.039 1.517 9.284 1.517h95.545c3.245 0 6.365-.539 9.285-1.517v21.517zm133.75-180.765c-13.029 28.53-19.635 58.9-19.635 90.264v41.216c0 5.12-4.165 9.285-9.285 9.285h-95.545c-5.119 0-9.284-4.165-9.284-9.285v-41.215c0-31.364-6.606-61.733-19.636-90.265-6.42-14.057-11.107-28.61-14.065-43.528h67.467v41.053c0 16.581 13.49 30.071 30.071 30.071s30.071-13.49 30.071-30.071v-24.96c3.15 1.123 6.54 1.734 10.071 1.734 12.222 0 22.757-7.334 27.455-17.828h16.381c-2.959 14.919-7.647 29.471-14.066 43.529z"/><path id="XMLID_979_" d="m130 285.59c2.63 0 5.21-1.07 7.07-2.93s2.93-4.44 2.93-7.07c0-2.64-1.07-5.21-2.93-7.08-1.86-1.86-4.44-2.92-7.07-2.92s-5.21 1.06-7.07 2.92c-1.86 1.87-2.93 4.44-2.93 7.08 0 2.63 1.07 5.2 2.93 7.07 1.86 1.86 4.44 2.93 7.07 2.93z"/></g></g></svg>