<svg height="100%" viewBox="0 0 512.001 512.001" width="100%" xmlns="http://www.w3.org/2000/svg"><path d="M170.592 107.592c-4.772 2.78-6.387 8.902-3.607 13.674a9.995 9.995 0 0013.674 3.607c31.788-18.518 63.736-21.901 94.955-10.054 5.164 1.959 10.938-.639 12.897-5.802 1.959-5.164-.638-10.938-5.802-12.897-36.612-13.892-75.382-9.927-112.117 11.472zM105.462 182.388c-4.757-2.807-10.887-1.226-13.694 3.531-21.56 36.543-25.555 75.117-11.553 111.55a10.004 10.004 0 009.336 6.416 9.983 9.983 0 003.585-.668c5.155-1.981 7.728-7.767 5.747-12.922-11.902-30.97-8.501-62.668 10.109-94.212 2.808-4.757 1.227-10.889-3.53-13.695z"/><path d="M496.511 288.662c-25.691-33.127-54.968-52.311-87.425-57.422l35.455-17.942a10.002 10.002 0 003.388-15.05c-28.473-36.731-60.747-59.144-96.223-66.933l25.734-18.192a9.997 9.997 0 001.273-15.263c-27.004-26.804-56.779-45.336-88.498-55.081-5.281-1.623-10.875 1.342-12.496 6.623-1.622 5.279 1.343 10.874 6.623 12.496 25.271 7.764 49.309 21.851 71.594 41.935l-73.913 52.25c-41.041 28.995-102.094 25.095-136.1-8.694-3.917-3.893-10.25-3.873-14.142.044a9.97 9.97 0 00-2.907 7.051c0 2.569.985 5.138 2.951 7.091 33.979 33.764 37.903 94.351 8.747 135.062l-26.264 36.701c-.063.09-.132.176-.192.268l-26.182 36.587c-64.631-70.58-66.125-156.268-3.243-231.207a10 10 0 00-.519-13.428c-21.515-21.95-42.895-46.368-47.373-82.075l-2.24-17.862 36.135-4.472 2.245 17.896c3.04 24.198 19.476 43.624 36.785 61.012a10 10 0 0013.467.646c21.084-17.468 43.462-30.141 66.51-37.666 5.25-1.714 8.117-7.36 6.403-12.61s-7.359-8.116-12.61-6.403c-22.804 7.445-44.912 19.37-65.83 35.494-12.321-13.112-22.916-27.316-24.881-42.964l-3.487-27.8C88.609 3.28 83.61-.603 78.146.074L22.164 7.005a10 10 0 00-8.694 11.169l3.486 27.8c4.797 38.254 25.046 64.354 46.732 87.17C-2.05 217.177 4.635 316.005 82.016 392.896a10 10 0 0015.181-1.275l18.408-25.723c7.822 35.32 30.394 67.442 67.404 95.769a10 10 0 0014.978-3.38l18.17-35.451c5.104 32.349 24.43 61.518 57.843 87.104a9.998 9.998 0 0014.978-3.377l32.608-63.611a86.607 86.607 0 002.835-6.16c15.289 13.737 34.249 22.854 53.203 25.184l67.9 8.349a9.996 9.996 0 008.297-2.86 10.001 10.001 0 002.847-8.301l-8.66-69.518c-2.247-18.003-11.266-36.072-24.937-50.773a86.844 86.844 0 006.042-2.76l64.014-32.401a10 10 0 003.384-15.05zM293.565 172.417l34.113-24.114c35.376 1.471 67.862 19.193 96.743 52.763l-65.946 33.372c-11.938 6.025-25.722 9.223-39.969 9.321-4.853-2.242-9.865-4.097-14.993-5.477l-.652-5.231c-2.262-18.277-10.267-36.473-22.876-52.373a118.58 118.58 0 0013.58-8.261zm-74.141 200.191l-33.636 65.628c-33.824-28.69-51.692-60.953-53.195-96.08l24.242-33.876a117.59 117.59 0 008.484-13.773c14.024 10.769 30.393 18.672 47.779 22.123 3.302.655 6.629 1.092 9.968 1.502a87.606 87.606 0 005.701 15.703c-.221 13.847-3.432 27.212-9.343 38.773zm13.277-73.441l-9.845-1.211c-17.389-2.137-34.734-10.122-49.459-22.634 9.426-28.859 8.534-60.968-2.178-88.67 15.015 5.742 31.314 8.653 47.706 8.652 14.104-.001 28.266-2.18 41.726-6.545 12.454 14.047 20.344 30.443 22.363 46.756l8.844 70.928-58.96-7.251c-.065-.01-.132-.016-.197-.025zm77.407 116.004c-.038.17-.065.342-.094.514-1.25 6.369-3.326 12.483-6.228 18.146l-26.979 52.628c-35.439-30.675-48.272-65.289-39.22-105.47 3.503-6.995 6.212-14.483 8.088-22.28 15.757 17.08 37.372 29.219 60.246 32.02l4.866.598c1.018 8.096.774 16.152-.679 23.844zm-1.752-44.293c-25.11-3.075-48.957-21.065-60.51-43.549-.097-.209-.194-.419-.305-.62a70.908 70.908 0 01-2.62-5.888l57.227 7.038a10 10 0 0011.144-11.162l-7.038-56.447c25.73 10.238 47.051 35.066 50.234 60.624l7.074 56.789zm119.804 21.243l7.074 56.789-55.171-6.784c-18.104-2.226-36.357-12.455-49.593-27.621a96.893 96.893 0 00.649-20.679l42.731 5.252a9.996 9.996 0 008.296-2.86 10.002 10.002 0 002.847-8.302l-5.273-42.333a97.717 97.717 0 0020.748-.631c15.303 12.725 25.56 30.094 27.692 47.169zm-8.079-73.853c-12.757 6.454-27.765 8.856-42.896 6.971l-.852-6.837c-2.69-21.598-14.871-42.34-32.093-57.696 7.872-1.866 15.442-4.561 22.522-8.063 40.461-9.008 75.312 3.708 106.187 38.866z"/><path d="M234.924 55.099h.057c5.523 0 9.972-4.477 9.972-10s-4.506-10-10.029-10-10 4.477-10 10 4.477 10 10 10z"/></svg>