<?xml version="1.0" encoding="utf-8"?>
<!-- Generator: Adobe Illustrator 24.1.2, SVG Export Plug-In . SVG Version: 6.00 Build 0)  -->
<svg version="1.1" id="Capa_1" xmlns="http://www.w3.org/2000/svg" xmlns:xlink="http://www.w3.org/1999/xlink" x="0px" y="0px"
	 viewBox="0 0 512 512" style="enable-background:new 0 0 512 512;" xml:space="preserve">
<style type="text/css">
	.st0{fill:#D1462A;}
	.st1{fill:#EA552D;}
	.st2{fill:#FFD993;}
	.st3{fill:#F29500;}
	.st4{fill:#FFA90B;}
	.st5{fill:#FFB52D;}
	.st6{fill:#FFC14F;}
	.st7{fill:#FFCD71;}
</style>
<path class="st0" d="M495.1,201.2c6.7,31,7.5,61.3,3.4,90.1H176V42.3c0-11.1,7.4-20.9,18.1-23.6c35.9-9.4,75.1-10.8,115.4-2.2
	C393.2,34.2,477.1,117.6,495.1,201.2L495.1,201.2z"/>
<path class="st1" d="M380,207.3c0.5,104.4-84.2,190.1-188.6,190.9c-64.1,0.5-120.9-30.8-155.7-79.1c-17.1-23.7-25.4-52.7-24-81.9
	c0.1-1.1,0.1-2,0.2-2.7C21.2,129.2,97,43,197.1,18.3C298.4,22.1,379.5,105.2,380,207.3L380,207.3z"/>
<path class="st2" d="M270,165.2c0,52.5-42.5,95-95,95s-95-42.5-95-95s42.5-95,95-95S270,112.7,270,165.2z"/>
<path class="st3" d="M33.3,340.2c-4.6,0-8.6-2.9-10.1-7.2c-8-24.1-12.3-50-12.3-76.8c0-2,0-4,0.1-6H38c47.6,0,94.8-8.8,139.3-25.9
	l178.2-68.5c9.1-3.5,19.3-2.2,27.3,3.4l80.2,56.5c24.6,17.4,49.6,45.7,49,74.5c-0.3,13.6-5.7,29-22.4,40c-3.9,2.5-7.2,6.8-9.6,10
	H33.3z"/>
<path class="st4" d="M480,340.2H135.1c-1.8-6.5-7.8-16.3-9-23c-0.4-2,176.2,2.1,213.9-27c13.6-10.4-1-69.4,20-90
	c18.7-18.4,53.8-19.2,53.8-19.2l49.2,34.6c24.6,17.4,49.6,45.7,49,74.5c-0.3,13.6-5.7,29-22.4,40C485.8,332.8,482.4,337,480,340.2
	L480,340.2z"/>
<path class="st5" d="M22.4,330.2l143.7-42.9c15.6-4.7,32.2-5,48-1.1l165,41.2c7.2,1.8,14.6,2.7,22.1,2.7h88.4
	c-12.1,38.2-33.3,72.4-61.1,100H83.5C55.7,402.6,34.5,368.5,22.4,330.2z"/>
<path class="st5" d="M22.4,330.2l143.7-42.9c15.6-4.7,32.2-5,48-1.1l165,41.2c7.2,1.8,14.6,2.7,22.1,2.7h88.4
	c-12.1,38.2-33.3,72.4-61.1,100H83.5C55.7,402.6,34.5,368.5,22.4,330.2z"/>
<path class="st6" d="M401.2,330.2h88.4c-12.1,38.2-33.3,72.4-61.1,100h-137C266.9,373.8,180.6,321.6,176,285
	c12.6-2.3,25.7-1.9,38.2,1.3l165,41.2C386.3,329.3,393.8,330.2,401.2,330.2z"/>
<path class="st2" d="M438,420.2c-44.8,49.7-109.8,81-182,81s-137.2-31.3-182-81h73.4c28.3,0,56.6-3.2,84.2-9.6
	c58.1-13.4,118.6-12.7,176.4,2L438,420.2z"/>
<path class="st7" d="M413.7,443.7c-54.4-0.5-108.1,12-156.7,36.4c-13.7,6.8-27.7,12.8-42.1,17.7c-22.5-3.8-44-10.7-63.9-20.2
	l30.4-5.1C206.9,468.2,232,461,256,451c50.6-21,105.4-29.6,159.9-25.1l15.5,1.3C425.8,433,419.9,438.5,413.7,443.7L413.7,443.7z"/>
</svg>
